# xmcd
#
# Track frame offsets: 
#        150
#        674
#        18304
#        38373
#        57247
#        74486
#        95272
#        111959
#        127452
#        146673
#        165228
#        179197
#        197941
#        215672
#        233096
#        246881
#        262475
#        284495
#        297194
#        313775
#
# Disc length: 4423 seconds
#
# Revision: 0
# Processed by: cddbd v1.5.2PL0 Copyright (c) Steve Scherf et al.
# Submitted via: ExactAudioCopy v0.99pb4
#
DISCID=3c114514
DTITLE=Various Artist - prevue promo 1051A-3
DYEAR=2000
DGENRE=pop
TTITLE0=blank - data
TTITLE1=Kathy Lee Gifford - Love Never Fails
TTITLE2=NSYNC` - This I Promise You
TTITLE3=Mandy Moore - Walk Me Home
TTITLE4=Lenny Kravitz - Again
TTITLE5=Matchbox Twenty - If You're Gone
TTITLE6=Teri Tims - I Can Never Dance Enough
TTITLE7=Aaron Carter - Aaron's Party (Come Get It)
TTITLE8=Mystikal - Shake It Fast
TTITLE9=Keith Sweat feat.  Lil' Mo - I'll Trade (A Million Bucks)
TTITLE10=Trina - Pull Over
TTITLE11=Keb' Mo' - Come On Back
TTITLE12=Lyle Lovett - Ain't It Something
TTITLE13=Pat McGee Band - Rebecca (Are You All Right)
TTITLE14=Phish - Back On The Train
TTITLE15=Matchbox Twenty - Crutch
TTITLE16=Radiohead - Optimistic
TTITLE17=Blink-182 - Man Overboard
TTITLE18=Halford - Night Fall
TTITLE19=U.P.O. - Feel Alive
EXTD=
EXTT0=
EXTT1=
EXTT2=
EXTT3=
EXTT4=
EXTT5=
EXTT6=
EXTT7=
EXTT8=
EXTT9=
EXTT10=
EXTT11=
EXTT12=
EXTT13=
EXTT14=
EXTT15=
EXTT16=
EXTT17=
EXTT18=
EXTT19=
PLAYORDER=
